<svg width="200.136826" height="180.123138" viewBox="0 0 200.137 180.123" fill="none" xmlns="http://www.w3.org/2000/svg" xmlns:xlink="http://www.w3.org/1999/xlink">
	<desc>
			Created with Pixso.
	</desc>
	<defs/>
	<path id="path" d="M90.28 18.19L58.25 95.3C56.12 100.43 52.61 104.86 48.11 108.11L31.47 120.14C28.85 122.03 25.47 122.54 22.41 121.5L19.59 120.55C15.95 119.32 13.34 116.11 12.87 112.3L12.12 106.22L0 103.14L9.09 126.24L27.29 132.4L21.22 180.12L47 180.12L43.97 149.33L100.36 142.97C107.98 142.11 115.01 138.46 120.09 132.72L149.11 99.98C150.76 98.12 153.82 98.95 154.3 101.39L154.65 103.14L145.55 115.46L165.26 115.46L172.84 93.9L156.16 72.35L171.32 67.73L178.91 36.95L192.55 35.4L200.13 6.15L186.49 26.17L177.39 24.63L153.13 20.01L154.65 0L144.03 18.47L103.54 10.99C97.97 9.97 92.45 12.96 90.28 18.19Z" fill="#2D8CF0" fill-opacity="1.000000" fill-rule="nonzero"/>
</svg>
